<?xml version="1.0" standalone="no"?>
<!DOCTYPE svg PUBLIC "-//W3C//DTD SVG 20010904//EN"
 "http://www.w3.org/TR/2001/REC-SVG-20010904/DTD/svg10.dtd">
<svg version="1.0" xmlns="http://www.w3.org/2000/svg"
 width="736.000000pt" height="1302.000000pt" viewBox="0 0 736.000000 1302.000000"
 preserveAspectRatio="xMidYMid meet">

<g transform="translate(0.000000,1302.000000) scale(0.100000,-0.100000)"
fill="#000000" stroke="none">
<path d="M0 8634 c0 -4321 0 -4386 19 -4373 11 8 86 59 168 113 159 107 216
154 206 169 -12 20 -4 158 12 179 8 13 15 30 15 40 0 10 5 18 10 18 6 0 10 13
10 29 0 17 4 32 9 35 14 9 1 46 -17 46 -12 0 -14 10 -8 57 4 31 15 76 25 99
38 86 173 249 407 494 165 173 264 283 326 365 64 84 249 369 285 437 17 32
33 55 36 52 5 -5 24 32 42 81 40 109 53 390 31 666 -19 225 -19 299 -1 299 37
0 55 -139 62 -465 6 -288 -8 -430 -57 -597 -31 -105 -91 -240 -142 -323 -88
-141 -154 -235 -238 -340 -32 -40 -256 -280 -359 -385 -99 -100 -197 -217
-257 -308 -104 -156 -135 -212 -130 -234 3 -11 -2 -18 -10 -18 -16 0 -19 -36
-3 -45 6 -4 8 -13 5 -21 -3 -7 -1 -16 4 -19 6 -4 10 -26 10 -51 0 -39 2 -44
23 -44 12 1 34 6 48 13 30 14 272 264 380 392 219 259 302 288 562 195 l58
-20 72 43 c40 24 95 54 122 67 28 13 64 34 82 46 17 13 54 29 81 34 66 15 123
73 147 152 19 64 48 99 67 80 15 -15 21 -97 11 -151 -7 -39 -14 -47 -53 -69
-25 -13 -81 -45 -124 -70 -43 -25 -91 -47 -107 -49 -43 -4 -239 -101 -239
-118 0 -17 31 -35 60 -35 12 0 47 22 78 48 96 81 96 81 90 52 -3 -14 -9 -33
-13 -42 -15 -37 60 8 127 75 62 64 88 76 88 41 0 -16 -10 -27 -95 -101 -33
-29 -84 -65 -114 -80 -29 -15 -60 -38 -68 -49 -13 -20 -9 -27 46 -95 53 -65
71 -98 113 -211 6 -16 15 -28 20 -28 5 0 6 -5 2 -11 -3 -6 -2 -21 4 -32 6 -12
18 -44 28 -70 10 -27 23 -51 31 -54 7 -3 13 -16 13 -28 0 -13 5 -27 11 -30 5
-4 15 -18 20 -32 7 -18 15 -24 29 -20 10 3 20 1 22 -3 2 -5 32 -14 68 -20 122
-22 115 -20 99 -31 -10 -8 -9 -9 8 -4 12 3 24 1 28 -5 3 -5 18 -10 33 -10 17
0 32 -8 40 -21 9 -14 19 -18 34 -13 16 5 20 3 15 -9 -8 -21 16 -40 31 -25 8 8
13 7 18 -5 3 -9 12 -17 19 -17 8 0 11 -8 8 -19 -3 -11 7 -43 21 -71 26 -51 35
-120 16 -120 -5 0 -7 -13 -4 -29 5 -21 0 -34 -17 -50 -12 -11 -31 -21 -41 -21
-13 0 -18 -8 -18 -30 0 -30 1 -30 55 -30 30 0 55 -4 55 -10 0 -5 -25 -10 -55
-10 -54 0 -55 0 -55 -30 0 -23 4 -30 20 -30 17 0 20 -7 20 -40 0 -33 3 -40 20
-40 17 0 20 -7 20 -40 0 -33 -3 -40 -20 -40 -13 0 -20 -7 -20 -20 0 -17 7 -20
40 -20 33 0 40 -3 40 -20 0 -17 7 -20 40 -20 38 0 40 -2 40 -30 0 -29 2 -30
46 -30 31 0 56 7 76 21 23 17 32 19 38 9 10 -16 40 -5 40 15 0 8 -5 15 -10 15
-13 0 25 77 40 82 15 5 16 71 2 76 -7 2 -12 12 -12 22 0 10 -12 28 -27 39 -22
16 -24 20 -10 21 18 0 25 30 7 30 -5 0 -10 -5 -10 -11 0 -5 -5 -7 -11 -3 -8 4
-7 9 2 15 12 8 12 11 -1 18 -8 6 -12 12 -9 16 7 6 59 -43 59 -56 0 -4 14 -23
31 -41 17 -18 46 -55 65 -83 106 -152 131 -180 155 -177 13 1 85 6 159 11 74
5 136 10 137 10 4 2 -11 93 -23 135 -22 78 -17 85 23 29 20 -29 38 -52 39 -50
1 1 -1 36 -6 77 -24 218 -33 339 -34 470 -1 119 -4 149 -18 169 -11 15 -14 30
-9 40 8 16 17 89 30 246 l7 80 7 -50 c18 -120 22 -130 42 -127 11 2 26 4 34 5
28 4 20 -20 -11 -34 -29 -12 -33 -19 -36 -57 -2 -24 2 -50 8 -57 9 -11 8 -18
-4 -30 -13 -13 -16 -39 -16 -125 0 -121 25 -418 41 -495 26 -119 28 -125 54
-125 16 0 25 -6 25 -15 0 -8 5 -15 10 -15 6 0 26 -25 45 -55 22 -33 48 -60 69
-70 34 -16 72 -73 58 -87 -4 -4 -22 -2 -40 4 -29 11 -33 10 -48 -10 -19 -27
-78 -30 -108 -5 l-20 18 18 -30 c59 -96 140 -196 207 -254 118 -103 141 -121
194 -149 48 -26 55 -27 215 -27 190 1 225 11 272 80 51 75 60 118 47 225 -10
80 -9 107 4 170 35 165 49 215 60 222 7 4 38 8 69 8 45 0 62 -5 83 -23 24 -20
28 -34 37 -112 16 -157 -5 -324 -57 -441 -14 -32 -35 -100 -46 -150 l-19 -91
21 -47 c18 -41 24 -47 42 -42 47 14 87 18 112 12 33 -8 105 -73 105 -95 0 -9
11 -47 25 -86 52 -146 13 -248 -87 -228 -23 5 -29 3 -23 -6 6 -10 3 -11 -12
-3 -26 14 -81 76 -123 137 -60 89 -111 145 -159 173 -43 26 -53 27 -166 26
-186 -1 -240 -27 -238 -111 2 -54 14 -59 77 -28 72 35 196 46 244 21 60 -31
83 -97 26 -76 -35 14 -89 12 -159 -4 -65 -16 -95 -42 -95 -83 0 -22 -2 -24
-15 -13 -13 11 -15 6 -15 -34 0 -56 24 -107 93 -196 54 -70 75 -93 63 -72 -10
17 5 15 32 -4 14 -9 56 -19 103 -23 43 -4 84 -12 91 -19 7 -7 31 -9 71 -5 49
5 59 4 55 -8 -6 -20 -95 -48 -154 -49 -28 0 -68 7 -89 16 -20 8 -39 13 -41 11
-10 -10 69 -67 101 -73 55 -10 166 0 206 19 20 10 42 29 49 42 7 14 22 25 32
25 15 0 18 -8 18 -51 0 -40 6 -57 29 -87 38 -49 51 -94 54 -183 l2 -74 -90 -6
c-161 -11 -206 -34 -245 -125 -24 -55 -25 -73 -5 -80 9 -4 15 -19 15 -41 0
-22 13 -56 34 -92 154 -257 415 -826 521 -1138 l49 -143 159 0 160 0 -7 158
c-7 163 -29 416 -46 537 -40 282 -121 770 -165 995 -18 96 -50 263 -70 370
-20 107 -40 215 -46 240 -20 88 -60 297 -84 430 -13 74 -26 149 -29 165 -4 17
-32 158 -62 315 -65 336 -133 609 -210 839 -59 176 -58 175 -139 346 -124 265
-303 465 -441 496 -37 8 -59 19 -66 33 -6 11 -13 62 -14 112 -2 50 -6 98 -9
106 -4 9 -5 24 -3 34 2 14 -3 19 -19 19 -17 0 -29 -12 -45 -45 -19 -36 -30
-47 -59 -54 -54 -13 -88 -1 -95 34 -6 26 -12 30 -52 36 -26 4 -56 7 -67 8 -12
1 -20 8 -19 18 1 9 -8 19 -21 22 -26 7 -40 35 -25 50 7 7 51 9 118 7 120 -3
185 9 251 47 37 21 47 23 63 13 11 -7 22 -10 24 -8 3 2 11 37 18 77 13 68 13
74 -6 107 -18 29 -20 45 -15 104 3 38 2 69 -2 69 -4 0 -18 -11 -31 -25 -24
-26 -86 -49 -103 -38 -23 14 7 122 63 225 9 16 5 56 -20 181 -12 58 -13 117
-2 117 12 0 32 52 32 83 0 15 4 26 9 22 13 -8 18 3 26 57 6 41 5 47 -14 53
-12 3 -21 12 -21 19 0 7 -48 29 -112 50 -230 76 -367 130 -481 189 -42 22 -75
42 -73 44 2 3 53 -17 113 -42 206 -89 405 -153 576 -186 63 -12 71 -22 30 -37
-27 -10 -27 -10 11 -11 21 -1 98 -16 170 -35 118 -31 238 -53 338 -62 20 -2
63 -8 97 -13 33 -5 151 -15 263 -21 112 -6 226 -16 255 -22 40 -8 66 -8 112 3
58 12 62 16 82 57 20 40 20 48 9 105 -9 49 -23 77 -65 132 -56 76 -68 103 -67
149 2 61 49 105 117 108 68 2 151 105 144 177 -2 16 9 42 29 70 37 51 39 61
12 68 -11 3 -20 10 -20 15 0 5 -3 7 -7 5 -5 -3 -28 15 -53 39 -29 29 -48 40
-54 34 -7 -7 -16 1 -29 22 -14 27 -16 28 -11 8 5 -19 3 -22 -5 -14 -15 14 -4
67 12 57 5 -3 16 2 23 12 16 22 107 36 145 23 16 -6 35 -26 50 -56 24 -47 24
-47 27 -17 2 17 10 49 18 73 17 51 18 74 3 52 -7 -11 -8 -1 -3 34 6 46 6 48
-15 41 -12 -4 -21 -2 -21 4 0 6 -11 13 -25 17 -14 3 -25 12 -25 18 0 14 -101
126 -113 126 -4 0 -25 12 -47 26 -35 23 -40 31 -40 65 0 42 15 89 28 89 4 0
23 -21 40 -46 25 -34 38 -45 55 -42 20 3 22 8 22 75 0 80 8 97 31 65 12 -18
25 -22 71 -22 51 0 62 4 134 55 43 30 83 55 89 55 16 0 12 -62 -15 -219 -69
-397 -132 -666 -195 -836 -61 -163 -76 -212 -101 -332 -44 -215 -81 -277 -198
-336 -135 -68 -268 -71 -591 -16 -96 17 -191 33 -211 36 -59 9 -139 -38 -248
-143 l-93 -91 7 -43 c8 -50 -18 -330 -47 -505 -11 -66 -23 -142 -27 -168 -7
-45 -25 -72 -42 -62 -9 6 -29 -41 -29 -68 0 -27 17 -47 41 -47 29 0 191 -87
244 -130 28 -23 123 -111 212 -197 168 -160 237 -215 435 -346 64 -42 158
-116 207 -163 l90 -86 153 -2 c115 -2 175 -8 243 -24 175 -41 354 -112 466
-184 317 -203 471 -584 430 -1068 -17 -198 -29 -267 -140 -800 -60 -286 -88
-472 -96 -625 -3 -60 -8 -131 -10 -156 -5 -44 -1 -54 96 -215 173 -287 227
-398 275 -559 24 -82 68 -337 79 -457 l7 -68 249 0 249 0 0 6510 0 6510 -3680
0 -3680 0 0 -4386z m3634 4066 c447 -51 800 -128 1002 -220 142 -64 297 -174
459 -324 70 -65 124 -105 175 -131 305 -153 556 -409 760 -775 20 -36 60 -108
90 -160 29 -52 81 -138 115 -191 35 -53 70 -110 79 -126 13 -26 25 -32 93 -47
496 -113 573 -165 738 -496 49 -97 75 -174 75 -219 0 -32 -1 -34 -16 -20 -20
21 -64 142 -64 177 0 30 -97 196 -157 270 -53 65 -91 89 -209 132 -133 49
-259 80 -469 115 -88 14 -169 30 -180 35 -19 8 -216 41 -333 56 -35 4 -49 10
-40 15 8 5 -9 9 -45 9 -31 0 -99 6 -150 14 -50 8 -148 20 -217 27 -69 7 -131
17 -137 22 -7 5 -29 6 -49 2 -26 -4 -34 -3 -29 5 5 8 -6 10 -41 5 -29 -4 -44
-3 -37 2 8 6 -1 9 -25 9 -66 1 -370 32 -383 39 -4 3 -102 6 -216 7 -181 1
-217 -2 -282 -20 -41 -11 -81 -18 -89 -14 -10 3 -13 1 -8 -6 5 -8 2 -10 -9 -5
-23 8 3 24 30 18 18 -5 18 -4 -2 6 -18 10 -38 3 -135 -44 -181 -88 -307 -220
-389 -408 -150 -343 -124 -1057 50 -1398 66 -129 87 -158 206 -276 167 -166
312 -220 680 -254 475 -44 596 -53 715 -54 111 -2 141 1 166 15 17 10 83 64
145 122 147 136 190 158 318 164 204 10 291 -49 325 -223 9 -44 18 -90 21
-102 5 -21 48 -72 63 -74 4 0 32 -3 62 -5 30 -2 71 -9 90 -16 47 -16 366 -15
450 1 73 14 153 46 171 68 9 10 -4 8 -45 -8 -32 -11 -60 -19 -62 -16 -3 3 12
11 33 17 54 18 132 70 170 113 27 30 32 45 31 82 -1 59 48 160 77 160 17 0 20
-6 19 -45 0 -34 -13 -71 -53 -150 -122 -241 -217 -310 -448 -324 -75 -5 -98
-10 -128 -30 -19 -13 -58 -29 -86 -35 -62 -14 -188 -14 -260 -1 -30 5 -71 12
-93 15 -40 7 -81 42 -97 83 -6 17 -3 52 12 115 37 156 15 262 -64 300 -49 24
-168 41 -237 33 -97 -12 -166 -54 -313 -195 -198 -190 -248 -216 -437 -224
-63 -3 -97 -2 -75 2 l40 7 -55 7 c-30 4 -82 8 -114 10 -58 2 -60 3 -68 33 -9
35 -42 54 -94 54 -47 0 -74 -16 -74 -43 0 -29 11 -44 35 -49 12 -3 2 -8 -28
-12 -55 -10 -320 9 -422 29 -80 16 -194 30 -212 27 -7 -2 -10 3 -7 12 6 16 19
15 154 -9 63 -11 153 -19 443 -38 20 -1 37 0 37 3 0 3 -82 11 -182 18 -101 7
-244 21 -318 32 -158 23 -192 25 -170 9 24 -17 -93 -3 -191 22 -46 12 -86 24
-89 27 -3 2 7 2 21 -2 19 -4 29 -1 33 10 3 8 2 12 -4 9 -5 -3 -20 1 -33 10
-13 8 -26 13 -29 9 -3 -3 -5 3 -4 13 0 11 -5 17 -13 15 -8 -2 -27 0 -44 4 -21
4 -26 9 -16 15 11 6 9 10 -6 16 -25 10 -115 63 -135 78 -14 12 -60 24 -106 28
-12 1 -21 9 -20 17 1 9 -9 15 -26 15 -14 1 -33 7 -42 14 -11 9 -16 10 -16 2 0
-6 11 -16 24 -21 13 -5 27 -14 31 -20 12 -20 -49 18 -78 49 -16 16 -38 31 -50
35 -22 5 -22 5 -2 -9 11 -8 34 -28 50 -43 17 -16 41 -36 55 -45 13 -10 20 -17
14 -17 -14 0 -63 37 -121 93 -27 26 -90 74 -139 106 -107 70 -186 151 -222
228 -21 47 -26 73 -26 140 -1 46 -4 83 -8 83 -5 0 -8 6 -8 14 0 9 -7 12 -20 9
-13 -4 -20 0 -20 9 0 10 8 13 30 10 17 -2 30 -9 30 -14 0 -7 4 -7 13 0 6 6 26
12 42 14 27 3 30 7 29 36 0 17 -1 192 -2 387 l-2 355 -27 -12 c-16 -6 -47 -19
-70 -29 -56 -25 -67 -24 -87 6 -12 19 -23 24 -37 20 -10 -4 -19 -3 -19 2 0 13
82 43 116 43 28 0 32 4 48 58 36 114 106 221 225 346 93 97 165 145 355 237
175 85 213 113 79 58 -43 -17 -106 -42 -141 -55 -35 -12 -110 -50 -167 -83
-111 -65 -208 -106 -225 -96 -5 3 -7 0 -4 -8 3 -8 -3 -17 -13 -21 -10 -3 -24
-9 -32 -12 -9 -4 -11 -2 -6 6 6 9 3 9 -13 1 -24 -13 -35 -2 -21 19 15 25 10
36 -6 12 -12 -17 -13 -27 -5 -44 10 -21 10 -21 -3 -6 -17 22 -31 11 -14 -11
10 -14 10 -14 -3 -4 -13 10 -22 0 -58 -68 -24 -43 -45 -79 -47 -79 -2 0 6 21
17 48 31 71 113 197 126 195 6 -2 9 4 6 12 -4 9 56 76 173 192 158 156 184
187 217 253 49 100 66 168 66 266 0 192 -94 394 -261 564 -227 230 -465 330
-754 318 -145 -7 -215 -35 -344 -137 -120 -97 -268 -341 -206 -341 8 0 26 -18
40 -40 18 -29 32 -40 50 -40 40 0 29 -24 -30 -65 -56 -38 -91 -72 -41 -40 49
33 26 7 -61 -66 -50 -41 -76 -59 -60 -40 22 26 25 36 16 47 -16 20 -26 18 -95
-16 -33 -16 -80 -34 -105 -39 l-44 -10 30 26 c17 14 40 33 52 44 13 10 47 35
76 54 53 35 55 38 76 118 44 161 127 311 231 416 69 69 112 100 230 165 207
115 349 171 517 207 86 18 118 20 258 14 179 -7 403 -41 534 -81 200 -61 413
-170 636 -325 66 -45 138 -95 160 -110 56 -37 295 -162 295 -154 0 14 -49 105
-89 165 -187 281 -517 537 -806 625 -149 45 -330 56 -491 30 -92 -15 -209 -47
-254 -70 -41 -21 -70 -27 -70 -16 0 6 35 28 78 50 212 107 452 133 826 91z
m-1613 -873 c-10 -9 -11 -8 -5 6 3 10 9 15 12 12 3 -3 0 -11 -7 -18z m-116 2
c11 -16 -4 -59 -20 -59 -18 0 -37 34 -29 54 7 18 39 21 49 5z m-57 -346 c-10
-2 -26 -2 -35 0 -10 3 -2 5 17 5 19 0 27 -2 18 -5z m-288 -70 c-29 -32 -64
-75 -78 -95 -25 -38 -32 -45 -32 -30 0 13 63 106 78 116 8 4 28 21 46 37 48
44 43 35 -14 -28z m90 -78 c0 -14 -111 -118 -117 -111 -5 4 19 32 52 62 61 55
65 58 65 49z m145 -113 c-16 -2 -25 -11 -27 -25 -2 -16 -10 -22 -28 -23 -14 0
-31 -4 -39 -8 -17 -11 -78 22 -84 46 -3 12 -11 16 -21 12 -28 -11 -17 5 14 21
27 14 30 14 30 0 0 -8 5 -15 10 -15 6 0 10 -7 10 -15 0 -8 7 -15 15 -15 8 0
15 7 15 16 0 42 52 58 97 29 32 -20 32 -20 8 -23z m193 21 c-15 -2 -42 -2 -60
0 -18 2 -6 4 27 4 33 0 48 -2 33 -4z m2 -53 c0 -13 -30 -13 -50 0 -11 7 -7 10
18 10 17 0 32 -4 32 -10z m65 0 c3 -5 -3 -10 -14 -10 -11 0 -23 5 -26 10 -3 6
3 10 14 10 11 0 23 -4 26 -10z m-5 -30 c10 -6 11 -10 3 -10 -7 0 -13 -10 -13
-22 0 -27 -5 -21 -14 15 -7 28 -1 33 24 17z m-718 -111 c3 -9 9 -9 25 0 22 11
63 15 63 6 0 -3 -9 -24 -20 -45 -23 -46 -57 -53 -90 -20 -23 23 -25 41 -8 58
15 15 25 15 30 1z m540 -81 c-8 -8 -9 -4 -5 13 4 13 8 18 11 10 2 -7 -1 -18
-6 -23z m63 12 c3 -5 -1 -10 -10 -10 -9 0 -13 5 -10 10 3 6 8 10 10 10 2 0 7
-4 10 -10z m35 -19 c0 -6 -4 -12 -8 -15 -5 -3 -9 1 -9 9 0 8 4 15 9 15 4 0 8
-4 8 -9z m31 -44 c-10 -9 -11 -8 -5 6 3 10 9 15 12 12 3 -3 0 -11 -7 -18z
m-46 -22 c22 -13 35 -25 28 -25 -6 0 -14 4 -17 9 -7 11 -175 11 -182 0 -3 -5
-18 -9 -33 -9 -37 0 -93 -19 -107 -37 -12 -14 -64 -9 -64 7 0 10 84 50 140 66
25 7 79 13 120 13 63 1 81 -3 115 -24z m96 8 c13 -16 12 -17 -3 -4 -17 13 -22
21 -14 21 2 0 10 -8 17 -17z m26 -38 c0 -8 -4 -12 -9 -9 -5 3 -6 10 -3 15 9
13 12 11 12 -6z m2708 -20 c88 -8 210 -22 270 -30 61 -8 220 -28 355 -45 315
-40 430 -58 795 -125 284 -52 547 -107 643 -134 50 -14 137 -87 92 -77 l-25 5
21 -17 c25 -20 24 -45 -6 -130 -23 -64 -43 -90 -87 -108 -59 -25 -99 -21 -598
61 -148 24 -439 67 -645 95 -206 27 -413 57 -460 66 -221 40 -339 98 -592 291
-116 89 -127 101 -107 114 11 7 9 9 -8 9 -28 0 -93 30 -93 43 0 13 227 3 445
-18z m-2645 -65 c0 -5 -2 -10 -4 -10 -3 0 -8 5 -11 10 -3 6 -1 10 4 10 6 0 11
-4 11 -10z m-271 -137 c-1 -5 -1 -18 0 -31 1 -20 3 -21 21 -10 11 7 20 21 20
30 0 10 7 18 15 18 19 0 19 -9 0 -53 -18 -44 -29 -51 -45 -32 -7 8 -16 12 -21
9 -15 -9 -40 23 -32 43 9 25 45 47 42 26z m116 -50 c-5 -27 -5 -27 6 -5 14 25
34 31 25 6 -3 -9 -6 -23 -6 -32 0 -9 -4 -23 -9 -31 -8 -12 -12 -12 -24 -3 -8
7 -19 12 -23 11 -39 -7 -43 10 -12 51 28 39 50 40 43 3z m1989 3 c46 -19 71
-74 56 -121 -6 -19 -25 -46 -43 -61 -27 -23 -38 -26 -81 -21 -86 8 -121 78
-76 152 19 31 70 64 98 65 7 0 27 -6 46 -14z m-1884 -7 c0 -5 -11 -27 -25 -47
l-25 -37 3 35 c2 20 8 34 15 33 7 -2 12 4 12 12 0 8 5 15 10 15 6 0 10 -5 10
-11z m5 -104 c-1 -41 -4 -77 -6 -80 -3 -2 -15 -2 -27 2 -18 4 -22 12 -22 45 0
36 2 40 21 35 16 -4 18 -3 8 9 -9 11 -8 19 5 39 9 14 18 25 20 25 2 0 2 -34 1
-75z m-175 -6 c0 -33 -3 -40 -17 -37 -13 2 -19 14 -21 41 -3 32 0 37 17 37 18
0 21 -6 21 -41z m81 -16 c12 -33 5 -53 -19 -53 -24 0 -42 19 -42 45 0 44 45
50 61 8z m4986 -106 c7 -64 3 -98 -13 -123 -9 -13 -19 -22 -23 -18 -8 7 -9 84
-2 79 3 -1 12 3 18 11 7 7 9 15 4 19 -6 3 -6 18 -1 34 4 16 6 32 4 35 -2 3 -1
4 3 0 4 -3 9 -19 10 -37z m-4378 -36 c-12 -28 -24 -50 -26 -48 -2 2 6 27 18
56 12 28 24 50 26 48 2 -2 -6 -27 -18 -56z m-93 -238 c-22 -92 -23 -626 -1
-750 3 -17 2 -34 -3 -37 -14 -8 -260 -55 -328 -62 l-61 -6 -13 83 c-13 94 -65
260 -105 340 -15 29 -63 107 -107 171 -52 79 -74 120 -66 123 7 2 150 38 318
79 168 40 314 76 325 79 43 10 48 8 41 -20z m3135 -25 c1 -7 1 -17 0 -22 -1
-4 3 -13 8 -20 5 -6 9 -28 9 -49 0 -29 -6 -42 -23 -53 -21 -14 -26 -14 -48 1
-30 19 -43 83 -21 101 8 6 14 18 14 26 0 8 3 18 7 21 11 12 53 8 54 -5z m-501
-52 c0 -24 -26 -38 -40 -22 -6 9 -9 20 -5 26 9 15 45 12 45 -4z m189 -15 c22
-14 3 -31 -32 -28 -43 3 -52 37 -10 37 15 0 34 -4 42 -9z m896 -7 c11 -12 13
-20 5 -29 -8 -9 -8 -14 0 -17 13 -4 21 -44 13 -63 -3 -8 -12 -15 -20 -15 -8 0
-11 -4 -8 -10 3 -5 -3 -10 -14 -10 -11 0 -23 5 -26 10 -3 6 0 10 7 10 9 0 9 3
-2 10 -21 13 -21 88 -1 111 20 22 26 23 46 3z m-985 -1 c-1 -18 -18 -35 -24
-24 -4 6 -4 16 -1 21 7 12 25 13 25 3z m-4041 -63 c79 -15 120 -38 187 -105
324 -322 367 -1244 80 -1717 -25 -42 -46 -78 -46 -81 0 -2 14 -10 30 -17 17
-7 38 -26 46 -42 10 -18 25 -31 45 -35 27 -5 51 -23 32 -23 -4 0 -14 -4 -21
-9 -19 -12 5 -67 49 -109 75 -74 388 -252 443 -252 21 0 29 -17 10 -24 -26
-10 -11 -78 96 -411 41 -129 97 -326 107 -377 4 -20 -2 -32 -27 -55 -35 -30
-65 -87 -54 -104 16 -27 -87 -106 -122 -92 -14 5 -16 15 -34 166 -12 102 -64
303 -101 385 -55 125 -103 204 -225 366 -107 142 -144 197 -144 214 0 8 -8 26
-19 40 -10 15 -20 32 -22 37 -12 29 -114 195 -116 188 -4 -11 28 -130 55 -203
11 -31 23 -74 26 -97 7 -38 6 -41 -21 -50 -16 -6 -38 -7 -50 -2 -24 9 -29 21
-78 229 l-32 135 -49 7 c-72 10 -131 36 -198 86 -141 106 -188 160 -246 285
-172 370 -194 837 -58 1247 37 115 66 174 127 260 102 146 188 187 330 160z
m4109 -77 c3 -28 0 -33 -17 -33 -23 0 -45 34 -37 56 4 9 15 14 28 12 18 -2 24
-11 26 -35z m102 23 c18 -23 8 -61 -16 -64 -17 -2 -23 4 -28 29 -3 17 -3 35 0
40 8 14 30 11 44 -5z m115 -6 c9 -15 16 -112 9 -132 -3 -10 -13 -18 -23 -18
-29 0 -44 26 -36 57 5 16 7 41 6 57 -3 35 28 61 44 36z m995 -6 c0 -17 -22
-14 -28 4 -2 7 3 12 12 12 9 0 16 -7 16 -16z m54 -8 c-4 -11 0 -13 17 -9 15 4
20 3 15 -5 -8 -13 -48 -16 -59 -6 -6 7 13 33 25 34 4 0 5 -6 2 -14z m-1403
-16 c13 -8 19 -21 19 -47 0 -43 -23 -73 -56 -73 -46 0 -62 86 -22 114 26 19
33 19 59 6z m1597 -33 c2 -10 -3 -17 -12 -17 -10 0 -16 9 -16 21 0 24 23 21
28 -4z m-110 -6 c3 -8 -1 -12 -9 -9 -7 2 -15 10 -17 17 -3 8 1 12 9 9 7 -2 15
-10 17 -17z m-1751 -20 c28 -52 3 -95 -42 -71 -24 13 -27 20 -27 55 0 30 2 34
19 28 10 -4 14 -2 10 4 -4 6 1 10 11 9 9 0 23 -12 29 -25z m408 -8 c8 -34 -7
-48 -34 -34 -19 11 -29 50 -15 63 12 13 43 -6 49 -29z m115 -3 c0 -27 -34 -44
-60 -30 -39 21 -24 50 27 50 26 0 33 -4 33 -20z m998 -68 c2 -49 0 -64 -13
-68 -30 -12 -46 15 -40 65 9 65 13 73 32 69 15 -3 19 -16 21 -66z m102 37 c0
-5 -6 -9 -12 -10 -10 0 -10 -2 0 -6 14 -5 16 -23 3 -23 -5 0 -17 7 -26 16 -12
12 -13 19 -5 29 12 14 40 10 40 -6z m160 -4 c0 -8 -4 -15 -10 -15 -5 0 -10 7
-10 15 0 8 5 15 10 15 6 0 10 -7 10 -15z m-62 -24 c5 -31 -12 -48 -32 -32 -13
11 -15 25 -7 59 1 2 9 2 19 0 9 -2 19 -14 20 -27z m-101 -58 c-4 -3 -2 -12 4
-19 16 -19 -5 -25 -30 -8 -25 18 -19 34 11 34 12 0 18 -3 15 -7z m106 -33 c-7
-28 -19 -33 -43 -20 -17 9 -19 14 -9 26 6 8 22 14 34 14 18 0 22 -4 18 -20z
m186 11 c17 -11 17 -67 0 -87 -20 -24 -62 -13 -73 18 -19 55 27 98 73 69z
m-2983 -35 c17 -13 17 -15 2 -21 -9 -4 -25 -1 -35 5 -17 11 -17 11 2 6 20 -6
20 -6 1 9 -27 20 2 21 30 1z m749 -18 c25 -11 33 -32 15 -43 -5 -3 -18 0 -29
7 -11 7 -24 9 -28 5 -4 -5 -1 -12 7 -17 13 -8 13 -10 -1 -10 -27 0 -42 25 -29
49 12 24 28 26 65 9z m400 -48 c41 -6 32 -7 -55 -8 -58 0 -114 4 -125 8 -26
11 112 11 180 0z m197 -30 c22 -27 23 -41 3 -34 -24 9 -18 -24 15 -91 50 -100
39 -213 -28 -287 -63 -70 -129 -85 -212 -47 -59 27 -96 71 -116 141 -20 68
-23 70 -199 89 -129 14 -159 29 -59 29 39 0 97 5 130 11 32 6 72 12 88 12 24
2 31 9 47 52 29 76 68 99 188 106 53 3 87 6 76 7 -22 2 -45 20 -45 35 0 19 94
0 112 -23z m-646 -45 c18 -15 18 -15 -5 -13 -14 2 -26 9 -29 16 -5 17 10 15
34 -3z m-210 -70 c6 -14 8 -14 18 0 8 11 23 15 46 13 29 -2 35 -7 38 -30 2
-18 -4 -31 -20 -42 -28 -20 -42 -20 -62 -1 -9 9 -17 11 -21 5 -10 -15 -61 -12
-75 5 -22 26 3 65 40 65 18 0 33 -6 36 -15z m2364 4 c0 -5 -4 -8 -9 -4 -5 3
-12 2 -15 -3 -3 -5 36 -14 87 -21 109 -14 222 -39 189 -40 -13 -1 -77 8 -141
19 -88 15 -125 18 -145 10 -56 -21 -64 -3 -13 28 37 24 47 26 47 11z m-2017
-20 c62 -17 45 -33 -28 -25 -92 9 -126 17 -119 27 7 12 101 11 147 -2z m-2050
-34 c-22 -17 -30 -11 -13 10 7 8 17 12 22 9 5 -3 1 -12 -9 -19z m3327 9 c0
-10 -7 -14 -22 -12 -32 5 -35 28 -4 28 17 0 26 -5 26 -16z m100 -9 c0 -10 -10
-15 -30 -15 -20 0 -30 5 -30 15 0 10 10 15 30 15 20 0 30 -5 30 -15z m1028
-18 c4 -34 -25 -49 -44 -22 -10 13 -10 23 -3 37 15 27 43 18 47 -15z m-1678
12 c0 -6 10 -10 23 -8 27 2 87 -20 87 -32 0 -10 -36 -14 -87 -10 -29 2 -33 -1
-33 -22 0 -26 16 -37 56 -37 17 0 22 -4 18 -15 -5 -12 -25 -15 -94 -15 -101 0
-116 9 -106 65 6 28 4 35 -9 35 -33 0 -3 19 40 26 25 3 48 10 51 15 7 13 54
11 54 -2z m1331 -1 c53 -18 76 -38 114 -99 l35 -56 75 -12 c100 -16 99 -34 -1
-25 -63 6 -76 5 -72 -7 3 -9 29 -17 71 -23 43 -6 67 -14 67 -22 0 -9 -18 -11
-75 -7 -62 5 -75 3 -75 -9 0 -26 -28 -72 -74 -120 -37 -39 -51 -48 -80 -48
-66 0 -106 25 -135 84 -9 17 -23 31 -31 31 -54 2 -150 19 -150 27 0 8 34 6
125 -7 l30 -5 0 78 c0 70 -2 77 -20 79 -83 6 -181 34 -196 57 -4 4 -12 5 -19
1 -8 -5 -11 -4 -6 3 9 15 49 11 62 -7 10 -13 17 -13 53 3 38 17 43 18 59 3 9
-8 29 -20 44 -26 27 -10 29 -8 53 39 39 76 74 93 146 68z m339 -128 c0 -13
-11 -13 -30 0 -12 8 -11 10 8 10 12 0 22 -4 22 -10z m-2549 -29 c52 -53 34
-111 -36 -111 -49 0 -65 16 -65 65 0 34 5 47 22 59 32 22 45 20 79 -13z
m-2061 -52 c0 -5 -4 -9 -10 -9 -5 0 -10 7 -10 16 0 8 5 12 10 9 6 -3 10 -10
10 -16z m3947 12 c20 -6 35 -6 38 0 10 16 41 10 60 -11 10 -11 16 -23 13 -26
-3 -3 -41 6 -84 20 -75 23 -95 36 -27 17z m693 -5 c0 -24 -16 -27 -40 -6 l-23
20 31 0 c21 0 32 -5 32 -14z m64 -1 c3 -8 11 -12 19 -9 18 6 40 -20 35 -43 -4
-21 -47 -33 -70 -19 -9 5 -14 16 -11 23 3 7 0 20 -7 28 -6 8 -9 19 -5 25 9 15
32 12 39 -5z m-4954 -9 c0 -2 -7 -7 -16 -10 -8 -3 -12 -2 -9 4 6 10 25 14 25
6z m2620 -7 c0 -5 -36 -9 -80 -9 -79 0 -80 0 -80 -26 0 -36 -17 -64 -39 -64
-23 0 -46 25 -31 35 5 3 10 19 10 35 0 22 5 30 23 33 39 8 197 5 197 -4z m504
1 c-7 -7 -24 -7 -50 -1 l-39 9 50 1 c33 1 46 -2 39 -9z m1741 -30 c3 -5 -3
-10 -14 -10 -11 0 -23 5 -26 10 -3 6 3 10 14 10 11 0 23 -4 26 -10z m-2187
-42 c18 -18 16 -62 -3 -54 -22 8 -18 -12 5 -26 11 -7 20 -18 20 -25 0 -18 -38
-35 -61 -28 -18 6 -20 12 -15 46 4 23 2 49 -5 61 -9 16 -8 22 2 29 20 12 43
11 57 -3z m-587 -13 c58 -30 61 -109 7 -164 -73 -75 -208 -36 -208 59 0 88
116 148 201 105z m901 -12 c23 -20 23 -42 1 -45 -10 -1 -25 -2 -33 -4 -8 -1
-22 -3 -30 -4 -8 -1 1 -6 20 -10 19 -5 41 -5 50 -1 22 12 40 2 40 -20 0 -14
-7 -19 -28 -19 -15 0 -42 -4 -60 -9 -24 -7 -35 -6 -47 5 -21 22 -19 36 15 82
33 46 44 50 72 25z m1763 2 c35 -9 42 -13 24 -14 -45 -2 -119 11 -113 20 7 12
27 10 89 -6z m80 -71 c-17 -18 -35 -18 -35 -1 0 20 9 25 30 20 17 -4 17 -7 5
-19z m-45 -21 c8 -4 19 -7 24 -7 13 -1 20 -26 7 -26 -6 0 -11 -4 -11 -10 0 -5
7 -10 15 -10 8 0 15 5 15 12 0 6 2 9 5 6 3 -3 3 -13 -1 -22 -10 -26 -34 -19
-45 14 -11 31 -19 35 -91 45 -26 3 -50 10 -52 14 -5 8 108 -6 134 -16z m-1632
-10 c-3 -14 -12 -17 -43 -15 -45 4 -50 6 -40 21 3 6 24 11 46 11 33 0 40 -3
37 -17z m1222 -3 c0 -5 -12 -10 -27 -11 -25 0 -26 -1 -8 -9 l20 -9 -20 -1
c-11 0 -28 -7 -38 -14 -15 -12 -15 -15 -2 -26 8 -7 23 -10 34 -7 27 7 49 -9
34 -24 -9 -9 -24 -9 -55 -3 -39 8 -43 12 -46 40 -2 25 3 37 24 53 27 21 84 29
84 11z m238 -14 c2 -11 -8 -21 -32 -31 -44 -18 -46 -18 -46 -1 0 18 49 58 64
53 6 -2 12 -11 14 -21z m-4434 -262 c14 -77 30 -153 35 -167 7 -17 7 -27 1
-27 -11 0 -12 4 -45 180 -13 74 -29 155 -34 180 -6 25 -10 54 -9 65 1 31 25
-75 52 -231z m2786 198 c0 -47 -45 -130 -74 -138 -32 -8 -56 1 -56 20 0 18
112 155 123 149 4 -2 7 -16 7 -31z m-330 -9 c0 -51 -36 -101 -77 -109 -37 -7
-63 0 -63 16 0 16 112 130 127 130 8 0 13 -13 13 -37z m1569 18 c12 -8 9 -11
-12 -17 -30 -7 -43 -1 -32 15 8 13 25 14 44 2z m-4146 -83 c23 -109 28 -142
21 -135 -4 4 -13 2 -20 -4 -8 -6 -22 -8 -31 -4 -17 6 -17 7 0 16 9 6 22 7 27
4 12 -8 13 30 1 53 -9 19 -25 142 -18 142 3 0 12 -33 20 -72z m4557 64 c0 -21
-28 -44 -51 -40 -31 4 -31 30 1 39 36 10 50 10 50 1z m-4364 -69 c13 -38 5
-58 -21 -50 -12 4 -19 62 -10 84 7 20 16 11 31 -34z m294 -18 c13 -14 21 -25
18 -25 -2 0 -15 11 -28 25 -13 14 -21 25 -18 25 2 0 15 -11 28 -25z m3795 6
c-3 -11 -1 -22 4 -26 11 -6 4 -58 -11 -87 -9 -18 -53 -25 -62 -10 -7 11 54
142 66 142 5 0 7 -9 3 -19z m239 -42 c27 -68 3 -124 -46 -111 -15 3 -18 10
-13 26 4 11 9 45 12 74 7 64 24 68 47 11z m-3509 -71 c15 1 17 -1 5 -8 -8 -5
-22 -4 -34 2 -29 15 -35 23 -11 13 11 -4 29 -7 40 -7z m50 -18 c3 -6 -1 -7 -9
-4 -18 7 -21 14 -7 14 6 0 13 -4 16 -10z m21 -38 c-5 -4 -66 26 -66 33 0 3 16
-3 35 -12 19 -9 33 -18 31 -21z m3614 -57 c-14 -16 -40 -20 -40 -6 0 5 7 17
16 26 22 21 44 4 24 -20z m-3445 7 c-3 -3 -11 0 -18 7 -9 10 -8 11 6 5 10 -3
15 -9 12 -12z m-1195 -36 c0 -26 -6 -18 -14 19 -5 22 -4 26 4 15 5 -8 10 -24
10 -34z m1254 25 c4 -5 -3 -7 -14 -4 -23 6 -26 13 -6 13 8 0 17 -4 20 -9z
m-19 -22 c15 -14 -7 -10 -35 7 l-25 15 25 -7 c14 -3 29 -10 35 -15z m42 -15
c-3 -3 -12 -4 -19 -1 -8 3 -5 6 6 6 11 1 17 -2 13 -5z m-887 -100 c0 -9 -5
-14 -12 -12 -18 6 -21 28 -4 28 9 0 16 -7 16 -16z m-102 -11 c-1 -10 1 -24 5
-31 10 -14 -16 -27 -38 -18 -15 5 -21 47 -8 59 14 15 44 7 41 -10z m62 1 c0
-8 -4 -12 -10 -9 -5 3 -10 10 -10 16 0 5 5 9 10 9 6 0 10 -7 10 -16z m173 -13
c6 -24 0 -31 -25 -31 -13 0 -18 7 -18 25 0 31 35 35 43 6z m117 9 c0 -5 -4
-10 -10 -10 -5 0 -10 5 -10 10 0 6 5 10 10 10 6 0 10 -4 10 -10z m-422 -12
c13 -13 17 -58 5 -58 -17 0 -30 16 -35 43 -6 29 9 36 30 15z m-52 -23 c4 -14
3 -29 -1 -33 -8 -8 -35 26 -35 45 0 24 29 14 36 -12z m228 19 c24 -9 20 -37
-4 -31 -10 3 -21 0 -23 -6 -5 -15 -27 1 -27 20 0 9 6 13 15 9 8 -3 15 -1 15 4
0 12 3 12 24 4z m2014 -11 c-15 -2 -42 -2 -60 0 -18 2 -6 4 27 4 33 0 48 -2
33 -4z m1104 -85 c-29 -46 -76 -88 -152 -135 -100 -61 -97 -60 -81 -40 7 9 38
31 67 48 30 17 54 35 54 40 0 5 6 9 14 9 8 0 16 6 19 14 4 10 -12 4 -43 -14
-26 -16 -52 -25 -56 -22 -4 4 -3 1 1 -7 6 -11 4 -13 -8 -8 -11 4 -14 2 -11 -7
3 -9 -6 -18 -25 -24 -29 -10 -30 -10 -20 15 27 72 -125 100 -270 50 -31 -11
-40 -12 -30 -3 43 39 191 58 252 32 18 -7 49 -12 68 -10 18 2 50 6 70 8 20 2
42 7 48 11 7 4 19 4 27 1 16 -6 83 58 84 78 0 5 3 7 6 3 4 -3 -3 -21 -14 -39z
m-3264 5 c5 -18 -10 -16 -34 2 -18 15 -18 15 5 13 14 -2 26 -9 29 -15z m-198
-53 c9 -16 8 -20 -5 -20 -8 0 -15 -4 -15 -10 0 -5 5 -10 10 -10 6 0 10 -9 10
-20 0 -24 -25 -27 -34 -4 -3 9 -6 28 -6 43 0 44 22 55 40 21z m-58 -46 c3 -54
-2 -71 -16 -57 -10 10 -7 113 3 113 5 0 11 -25 13 -56z m271 6 l18 -30 -30 0
c-28 0 -31 3 -31 30 0 18 5 30 13 30 7 0 21 -13 30 -30z m51 13 c3 -10 11 -26
18 -35 17 -23 5 -32 -21 -16 -24 15 -33 32 -25 53 8 20 20 19 28 -2z m86 -8
c0 -3 -9 -5 -20 -5 -11 0 -20 7 -20 15 0 13 4 14 20 5 11 -6 20 -13 20 -15z
m780 -24 c22 -32 22 -33 2 -22 -24 13 -45 45 -35 55 3 3 7 5 8 4 1 -2 12 -18
25 -37z m-730 9 c3 -1 12 -2 21 -1 9 1 19 -5 22 -14 4 -8 1 -15 -6 -16 -7 0
-22 -2 -34 -5 -19 -3 -43 18 -43 39 0 5 26 2 40 -3z m130 -10 c0 -5 -4 -10
-10 -10 -5 0 -10 5 -10 10 0 6 5 10 10 10 6 0 10 -4 10 -10z m363 -46 c-7 -3
-9 -12 -6 -21 4 -11 2 -14 -8 -11 -8 3 -15 12 -17 21 -3 12 3 17 20 16 13 0
18 -3 11 -5z m-53 -45 c0 -6 -4 -7 -10 -4 -5 3 -10 11 -10 16 0 6 5 7 10 4 6
-3 10 -11 10 -16z m366 -1 l19 -23 -22 18 c-12 11 -27 16 -34 11 -8 -4 -10 -3
-5 4 10 17 21 15 42 -10z m-481 3 c7 -12 -12 -24 -25 -16 -11 7 -4 25 10 25 5
0 11 -4 15 -9z m61 -16 c3 -14 10 -25 15 -25 5 0 9 -5 9 -11 0 -6 -8 -8 -20
-4 -11 3 -30 -1 -45 -11 -14 -9 -28 -14 -32 -10 -3 3 -1 6 6 6 7 0 10 4 7 8
-6 11 31 72 44 72 5 0 12 -11 16 -25z m174 -14 c0 -23 -25 -51 -46 -51 -22 0
-17 19 14 45 33 30 32 29 32 6z m206 4 c-11 -8 -15 -19 -11 -27 6 -10 5 -10
-5 -1 -11 10 -11 15 0 28 7 8 18 15 24 15 6 0 3 -7 -8 -15z m-297 -8 c-2 -1
-12 -9 -21 -16 -15 -12 -18 -11 -18 3 0 10 8 16 22 16 12 0 19 -1 17 -3z
m-514 -38 c14 -14 47 -11 39 3 -5 8 -2 9 12 4 10 -4 26 -9 33 -10 8 -2 17 -8
19 -14 3 -9 -3 -10 -23 -2 -16 6 -24 6 -20 0 3 -5 24 -14 45 -20 42 -11 54
-30 20 -30 -33 0 -152 48 -174 70 l-21 21 30 -7 c17 -3 34 -11 40 -15z m200
-12 c6 -6 -4 -6 -25 -2 -43 9 -52 14 -45 25 6 9 51 -6 70 -23z m1240 -4 c4
-17 2 -23 -9 -23 -8 0 -21 -3 -30 -6 -10 -4 -16 -1 -16 9 0 9 -8 23 -17 33
-16 16 -16 16 2 11 11 -4 27 -2 35 3 17 11 25 4 35 -27z m-1505 12 c7 -8 8
-15 2 -15 -5 0 -15 7 -22 15 -7 8 -8 15 -2 15 5 0 15 -7 22 -15z m1400 5 c0
-5 -6 -10 -14 -10 -8 0 -18 5 -21 10 -3 6 3 10 14 10 12 0 21 -4 21 -10z m-69
-9 c-11 -7 -10 -14 5 -39 14 -25 21 -29 35 -21 28 15 36 10 9 -6 -37 -21 -48
-18 -65 15 -21 41 -19 60 8 60 16 0 18 -3 8 -9z m-864 -28 c-7 -6 -67 9 -67
17 0 5 16 3 35 -3 19 -6 33 -12 32 -14z m-221 -11 c-16 -2 -35 3 -43 11 -13
13 -10 13 28 3 40 -10 41 -11 15 -14z m875 15 c21 -16 39 -51 39 -75 0 -27
-38 -72 -55 -66 -11 4 -9 10 6 25 28 28 24 93 -7 110 -54 29 -107 -27 -83 -87
7 -16 12 -32 11 -36 -2 -8 13 -12 35 -9 6 1 14 -2 17 -7 6 -10 -33 -8 -57 3
-43 18 -39 109 6 140 26 18 66 19 88 2z m-486 -7 c-3 -5 -13 -10 -21 -10 -8 0
-14 5 -14 10 0 6 9 10 21 10 11 0 17 -4 14 -10z m-582 -61 c3 -11 0 -19 -6
-20 -7 0 -20 -2 -29 -4 -10 -2 -16 2 -15 8 1 6 -8 13 -20 15 -19 3 -21 7 -13
21 5 10 7 21 3 24 -3 4 12 -1 35 -9 22 -9 42 -25 45 -35z m1047 -9 c0 -15 -7
-20 -25 -20 -31 0 -42 23 -25 55 12 22 13 22 31 4 10 -10 19 -28 19 -39z
m-1155 40 c3 -5 1 -10 -4 -10 -6 0 -11 5 -11 10 0 6 2 10 4 10 3 0 8 -4 11
-10z m540 -10 c4 -6 1 -17 -5 -25 -14 -17 -44 -6 -54 20 -4 11 2 15 24 15 16
0 32 -5 35 -10z m-370 -49 c5 -1 5 -5 -1 -11 -11 -11 -44 -3 -44 10 0 5 8 7
18 5 9 -2 21 -4 27 -4z m60 -31 c3 -5 1 -10 -4 -10 -6 0 -11 5 -11 10 0 6 2
10 4 10 3 0 8 -4 11 -10z m208 3 c-7 -2 -19 -2 -25 0 -7 3 -2 5 12 5 14 0 19
-2 13 -5z m-378 -33 c22 -11 35 -20 30 -21 -6 0 6 -7 25 -14 19 -7 29 -14 21
-14 -11 -1 -11 -4 -1 -16 10 -12 9 -15 -5 -15 -13 0 -15 -3 -6 -13 6 -8 8 -17
4 -20 -3 -4 -1 -7 5 -7 6 0 14 -17 18 -37 4 -21 17 -61 30 -90 13 -28 24 -58
24 -65 0 -8 5 -19 11 -25 6 -6 13 -29 15 -53 4 -32 1 -45 -12 -55 -16 -11 -21
-8 -41 29 -72 127 -137 281 -127 297 8 14 -6 89 -17 89 -5 0 -4 -11 1 -26 6
-14 10 -33 9 -42 0 -9 -7 1 -15 23 -8 22 -19 44 -24 49 -6 6 -10 14 -10 20 0
5 7 1 15 -10 9 -12 14 -14 15 -6 0 9 7 11 23 7 18 -5 16 -2 -8 14 -38 26 -30
27 20 1z m686 -3 c-10 -9 -11 -8 -5 6 3 10 9 15 12 12 3 -3 0 -11 -7 -18z m28
-41 c29 -8 56 -18 60 -22 9 -10 -84 5 -127 21 -31 12 -33 14 -12 14 14 0 49
-6 79 -13z m171 -10 c0 -2 -11 -6 -25 -8 -13 -3 -22 -1 -19 3 5 9 44 13 44 5z
m-1051 -141 c95 -306 153 -429 259 -547 20 -22 31 -42 26 -49 -5 -9 -2 -10 10
-6 14 5 15 3 6 -13 -13 -25 5 -37 28 -18 15 11 15 11 5 -3 -10 -12 -9 -20 3
-37 12 -18 13 -26 3 -44 -7 -13 -12 -25 -12 -28 0 -3 -3 -13 -6 -23 -6 -17 -8
-17 -20 -3 -8 9 -19 16 -25 16 -13 0 -90 78 -128 130 -46 64 -117 213 -132
280 -8 36 -20 102 -25 148 -15 121 -26 153 -65 192 -20 19 -36 40 -36 47 0 17
30 32 61 30 24 -2 29 -9 48 -72z m347 -263 c-12 -23 -12 -29 -1 -29 7 0 11 6
8 14 -3 7 0 13 6 13 6 0 11 -10 11 -23 0 -13 5 -28 12 -35 6 -6 13 -24 14 -39
2 -23 1 -25 -7 -10 -6 9 -7 22 -3 29 5 8 2 9 -10 5 -13 -5 -19 -1 -23 12 -3
11 -11 22 -19 25 -19 7 -18 42 1 50 8 3 15 13 16 23 0 10 3 13 5 6 3 -6 -2
-25 -10 -41z m-36 -139 c0 -9 -60 69 -76 99 -27 52 -14 41 31 -25 25 -37 45
-70 45 -74z m-122 53 c17 -29 60 -93 96 -141 65 -85 90 -128 41 -70 -102 121
-194 265 -171 265 2 0 18 -24 34 -54z m-321 -11 c5 -18 -13 -35 -45 -41 -36
-7 -53 15 -31 42 13 16 70 16 76 -1z m21 -309 c3 -12 -1 -17 -10 -14 -7 3 -15
13 -16 22 -3 12 1 17 10 14 7 -3 15 -13 16 -22z m2 -57 c0 -6 -4 -7 -10 -4 -5
3 -10 11 -10 16 0 6 5 7 10 4 6 -3 10 -11 10 -16z m318 -103 c-2 -12 -10 -21
-18 -21 -16 0 -25 28 -16 52 9 23 38 -4 34 -31z m-321 12 c-3 -8 -6 -5 -6 6
-1 11 2 17 5 13 3 -3 4 -12 1 -19z m13 -22 c0 -3 -4 -8 -10 -11 -5 -3 -10 -1
-10 4 0 6 5 11 10 11 6 0 10 -2 10 -4z m-70 -105 c0 -9 -5 -22 -11 -28 -8 -8
-7 -17 5 -34 9 -13 16 -36 16 -51 0 -16 9 -68 19 -116 11 -48 21 -103 23 -122
3 -30 7 -35 31 -38 24 -3 27 0 26 25 0 15 -4 37 -9 48 -8 19 -9 19 -9 -3 -1
-31 -21 -18 -21 14 0 14 4 22 10 19 6 -4 10 6 10 22 0 21 -3 24 -10 13 -7 -11
-11 -8 -20 15 -7 17 -13 47 -14 68 -1 20 -7 42 -14 49 -7 7 -12 18 -12 26 0
23 41 83 54 79 6 -2 14 -28 18 -58 3 -30 16 -106 28 -169 39 -218 41 -241 36
-480 -4 -188 -9 -250 -25 -308 -24 -93 -81 -181 -81 -124 0 9 7 28 15 42 57
98 58 103 58 310 0 248 -10 380 -28 380 -9 0 -15 -15 -17 -42 l-4 -43 -8 39
c-5 22 -18 56 -30 75 -12 20 -26 60 -33 91 -40 186 -52 235 -62 238 -6 2 -11
13 -11 24 0 15 5 18 20 13 16 -5 20 -2 20 18 0 13 3 27 6 30 10 10 24 -2 24
-22z m-53 -147 c4 -10 0 -22 -10 -28 -8 -7 -17 -28 -19 -47 -3 -29 -7 -34 -28
-34 -21 0 -26 5 -28 33 -2 17 -7 32 -12 32 -17 0 2 31 29 45 35 19 60 19 68
-1z m487 -47 c-7 -19 -20 -22 -29 -7 -9 15 16 43 27 32 5 -5 6 -16 2 -25z
m1280 -66 c3 -4 -6 -6 -19 -3 -14 2 -25 6 -25 8 0 8 39 4 44 -5z m-1971 -93
c23 -12 22 -35 -4 -48 -15 -9 -19 -18 -15 -38 7 -33 -7 -57 -28 -49 -19 7 -21
48 -4 65 21 21 -9 43 -48 36 -30 -5 -34 -4 -34 15 0 16 6 21 24 21 14 0 28 5
31 10 6 10 46 4 78 -12z m586 -133 c16 -163 15 -241 -5 -249 -9 -4 -19 -5 -21
-2 -2 2 1 42 7 87 7 46 9 113 6 149 -4 36 -9 88 -11 115 -4 35 -2 44 4 29 5
-11 14 -70 20 -129z m-282 -99 c-12 -137 -90 -301 -161 -336 -22 -10 -43 -17
-48 -14 -14 9 -9 32 10 38 71 23 160 189 178 332 10 85 28 67 21 -20z m378
-16 c3 -5 1 -10 -4 -10 -6 0 -11 5 -11 10 0 6 2 10 4 10 3 0 8 -4 11 -10z
m-769 -91 c10 -12 31 -27 46 -35 32 -16 36 -39 11 -66 -49 -54 -126 29 -97
106 8 21 17 20 40 -5z m633 -142 c-31 -80 -60 -137 -68 -137 -9 0 1 24 24 60
14 22 45 111 46 135 2 17 2 17 6 -3 3 -13 -1 -38 -8 -55z m725 -12 c-8 -20
-21 -19 -33 4 -13 23 -4 33 20 20 10 -5 16 -16 13 -24z m171 -49 c38 -16 48
-46 16 -46 -37 0 -71 19 -71 40 0 24 9 25 55 6z m-1014 -43 c-8 -15 -10 -15
-11 -2 0 17 10 32 18 25 2 -3 -1 -13 -7 -23z m-296 -43 c10 -17 -5 -70 -20
-70 -20 0 -37 37 -30 60 7 21 39 27 50 10z m25 -135 c17 -21 16 -155 -1 -165
-18 -12 -39 0 -50 27 -10 28 -12 136 -2 146 11 12 40 7 53 -8z m239 -22 c-18
-56 -21 -63 -30 -63 -15 0 -10 23 11 58 24 39 31 41 19 5z m-39 -103 c0 -14
-44 -82 -64 -99 -31 -26 -29 15 4 63 28 42 60 61 60 36z m-120 -69 c0 -12 -41
-63 -47 -57 -4 4 37 66 44 66 2 0 3 -4 3 -9z m616 -36 c3 -8 -1 -22 -10 -30
-15 -15 -16 -14 -16 14 0 32 16 42 26 16z m732 -17 c-3 -7 -11 -13 -18 -13 -7
0 -15 6 -17 13 -3 7 4 12 17 12 13 0 20 -5 18 -12z m-1342 -53 c-9 -13 -16
-30 -16 -38 0 -19 -20 -36 -36 -30 -22 8 -17 27 23 79 29 37 39 45 41 31 2
-10 -3 -29 -12 -42z m1354 -35 c0 -5 -7 -10 -16 -10 -8 0 -12 5 -9 10 3 6 10
10 16 10 5 0 9 -4 9 -10z m-1430 -59 c13 -25 -11 -51 -40 -44 -26 7 -25 28 2
47 28 20 25 20 38 -3z m1457 -28 c-9 -9 -19 -14 -23 -11 -10 10 6 28 24 28 15
0 15 -1 -1 -17z m-1512 -34 c8 -12 -34 -61 -46 -53 -5 3 -9 13 -9 23 0 32 40
55 55 30z m461 -34 c9 -23 -15 -45 -47 -45 -35 0 -39 22 -7 44 28 20 47 20 54
1z m-516 -30 c0 -8 -4 -15 -10 -15 -5 0 -10 7 -10 15 0 8 5 15 10 15 6 0 10
-7 10 -15z m1900 5 c0 -5 -4 -10 -10 -10 -5 0 -10 5 -10 10 0 6 5 10 10 10 6
0 10 -4 10 -10z m-1930 -35 c0 -18 -5 -25 -18 -25 -28 0 -34 11 -15 32 22 25
33 23 33 -7z m283 -15 c-5 -29 -5 -30 21 -20 23 8 26 7 26 -11 0 -29 -18 -59
-35 -59 -22 0 -55 37 -55 60 0 18 32 60 45 60 2 0 2 -14 -2 -30z m1389 3 c25
-23 23 -33 -9 -33 -37 0 -57 14 -50 34 8 21 36 20 59 -1z m-1188 -56 c-8 -22
-43 -22 -51 -1 -9 25 26 49 44 31 8 -7 11 -21 7 -30z m-526 11 c16 -16 -2 -44
-41 -64 -18 -9 -35 -21 -38 -27 -4 -5 -15 -7 -24 -3 -10 3 -16 8 -14 11 2 2
22 24 44 49 42 48 54 53 73 34z m-138 -17 c-13 -25 -27 -34 -40 -26 -16 10 8
45 31 45 16 0 18 -3 9 -19z m1920 9 c78 8 110 4 132 -17 25 -23 72 -35 134
-33 28 0 46 -5 57 -18 34 -37 -6 -72 -58 -52 -22 8 -32 6 -56 -11 -23 -16 -38
-20 -64 -15 -20 4 -35 3 -35 -3 0 -16 -44 2 -63 26 -15 19 -28 23 -71 23 -51
0 -112 14 -130 31 -5 4 -6 19 -2 32 7 31 49 48 96 41 19 -4 46 -5 60 -4z
m-433 -102 c-3 -7 -5 -2 -5 12 0 14 2 19 5 13 2 -7 2 -19 0 -25z m563 -125 c0
-6 3 -18 6 -27 4 -10 -1 -18 -12 -23 -11 -3 -27 -15 -37 -25 -15 -15 -16 -22
-6 -34 9 -11 9 -18 1 -26 -15 -15 -35 1 -29 23 6 21 -22 34 -65 30 -41 -4
-108 37 -108 65 0 22 5 23 73 26 131 6 177 4 177 -9z m-906 -43 c5 -17 4 -20
-2 -10 -5 8 -13 26 -16 40 -5 17 -4 20 2 10 5 -8 13 -26 16 -40z m636 30 c0
-13 -7 -20 -20 -20 -13 0 -20 7 -20 20 0 13 7 20 20 20 13 0 20 -7 20 -20z
m18 -72 c-6 -18 -28 -21 -28 -4 0 9 7 16 16 16 9 0 14 -5 12 -12z m436 -18
c48 -20 66 -47 66 -96 0 -24 0 -24 -31 -9 -17 9 -37 14 -44 12 -28 -11 -23
-107 6 -107 6 0 23 9 38 19 24 17 30 18 65 6 21 -8 57 -16 79 -19 70 -10 87
-46 42 -91 -22 -23 -32 -25 -118 -25 l-93 0 13 -87 c14 -97 46 -359 52 -435 2
-16 38 -7 75 19 77 52 167 27 196 -55 17 -50 8 -64 -21 -29 -30 39 -90 38
-130 -3 l-30 -30 18 -31 c10 -17 40 -51 67 -74 31 -27 47 -49 43 -58 -7 -19
-64 -29 -115 -21 -39 6 -40 5 -67 -40 -15 -26 -32 -45 -39 -43 -6 2 -11 24
-11 49 0 30 -6 53 -18 65 -18 21 -23 43 -8 43 14 0 23 32 12 43 -7 7 -18 7
-35 -1 -50 -22 -82 32 -55 92 9 20 8 29 -8 53 -18 26 -35 73 -48 133 -3 14 13
-11 35 -54 46 -92 56 -104 70 -90 11 11 -5 145 -40 334 -11 58 -22 132 -26
165 -3 33 -15 81 -26 107 -22 52 -62 96 -73 79 -3 -6 -13 -11 -21 -11 -9 0
-22 -7 -31 -16 -14 -14 -13 -27 10 -140 24 -119 26 -161 6 -148 -5 3 -9 15 -9
28 0 23 -71 240 -92 283 -15 30 -3 43 40 43 67 0 81 9 80 45 -2 68 30 74 66
13 l26 -43 0 57 c0 38 5 62 16 72 19 20 13 20 68 -4z m-501 -47 c8 -7 -21 -43
-35 -43 -10 0 -11 34 -1 43 8 9 28 9 36 0z m102 -28 c0 -5 -10 -11 -22 -13
-16 -2 -23 2 -23 13 0 11 7 15 23 13 12 -2 22 -7 22 -13z m-172 -27 c7 -21
-12 -48 -34 -48 -28 0 -37 30 -14 46 23 17 42 18 48 2z m-283 -59 c0 -10 -7
-19 -15 -19 -16 0 -19 9 -9 34 8 20 24 11 24 -15z m-1055 1 c3 -6 -1 -7 -9 -4
-18 7 -21 14 -7 14 6 0 13 -4 16 -10z m110 -60 c3 -5 1 -10 -4 -10 -6 0 -11 5
-11 10 0 6 2 10 4 10 3 0 8 -4 11 -10z m545 -84 c0 -14 -5 -28 -11 -31 -18
-12 -59 4 -59 23 0 13 2 14 9 3 7 -11 11 -9 20 8 16 29 41 27 41 -3z m230 -26
c11 -6 16 -17 13 -29 -2 -10 2 -38 10 -62 15 -44 14 -64 -3 -54 -36 22 -24
-215 22 -423 11 -51 17 -100 14 -108 -6 -15 -32 -19 -40 -5 -5 7 -19 165 -30
336 -3 33 -7 74 -11 90 -9 47 -18 232 -12 249 7 19 12 19 37 6z m226 -127 c-4
-4 -11 -1 -16 7 -16 25 -11 35 7 17 9 -9 13 -20 9 -24z m720 -8 c-3 -9 -14
-15 -23 -13 -22 4 -30 38 -11 49 18 11 43 -15 34 -36z m-1521 25 c3 -5 1 -10
-4 -10 -6 0 -11 5 -11 10 0 6 2 10 4 10 3 0 8 -4 11 -10z m1341 -55 c36 -36
28 -59 -19 -63 -44 -4 -67 11 -67 42 0 49 46 60 86 21z m97 -41 c3 -3 3 -12 0
-20 -4 -11 -9 -12 -19 -3 -8 6 -14 15 -14 20 0 10 24 12 33 3z m47 -90 c14
-36 13 -66 -2 -62 -19 6 -39 53 -32 72 9 24 23 20 34 -10z m-1560 -19 c0 -8
-9 -15 -20 -15 -25 0 -26 17 -2 23 9 3 18 5 20 6 1 0 2 -6 2 -14z m1688 -437
c2 -19 -2 -28 -18 -33 -24 -8 -50 10 -50 35 0 24 10 31 40 28 19 -2 26 -10 28
-30z m-288 -45 c32 -52 38 -89 16 -118 -13 -18 -14 -17 -30 7 -32 48 -50 158
-26 158 5 0 23 -21 40 -47z m414 -272 c21 -23 18 -65 -5 -69 -24 -4 -49 25
-49 59 0 35 27 40 54 10z m-244 -48 c6 -16 14 -35 18 -43 12 -22 3 -48 -17
-55 -33 -10 -49 5 -60 56 -15 69 -15 69 19 69 24 0 33 -6 40 -27z m425 -843
c10 -9 15 -32 15 -77 0 -63 0 -64 -34 -78 -36 -15 -66 -11 -127 20 -42 21 -89
64 -89 82 0 7 -5 13 -11 13 -6 0 -9 8 -7 17 6 34 218 52 253 23z m327 -820
c53 -15 93 -52 124 -115 23 -48 26 -64 22 -128 -3 -63 -8 -80 -32 -111 -75
-99 -175 -76 -258 59 -14 22 -28 53 -32 68 -3 15 -10 26 -14 23 -9 -5 -13 49
-6 91 9 59 81 122 139 123 11 0 37 -5 57 -10z"/>
<path d="M5396 11753 c13 -32 24 -73 24 -92 0 -26 3 -32 16 -27 9 3 18 6 20 6
2 0 4 13 4 28 0 26 -66 142 -81 142 -4 0 4 -26 17 -57z"/>
<path d="M3490 10771 c-62 -19 -117 -58 -198 -139 -81 -81 -89 -93 -120 -176
-81 -219 -113 -492 -92 -799 17 -260 51 -399 135 -552 109 -200 277 -359 349
-332 29 11 17 41 -53 136 -151 205 -219 414 -242 735 -11 150 -2 408 21 607
18 156 105 370 183 450 31 31 62 79 51 78 -5 0 -20 -4 -34 -8z"/>
<path d="M3551 8883 c-1 -28 11 -35 40 -25 19 7 20 10 6 15 -10 4 -17 2 -17
-3 0 -20 -19 -9 -23 13 -4 22 -4 22 -6 0z"/>
<path d="M3580 8829 c0 -5 5 -7 10 -4 6 3 10 8 10 11 0 2 -4 4 -10 4 -5 0 -10
-5 -10 -11z"/>
<path d="M3830 8474 c0 -8 5 -12 10 -9 6 3 10 10 10 16 0 5 -4 9 -10 9 -5 0
-10 -7 -10 -16z"/>
<path d="M3915 8465 c17 -8 39 -14 50 -14 11 0 0 7 -25 15 -56 17 -64 17 -25
-1z"/>
<path d="M3710 8450 c14 -4 36 -8 50 -8 22 0 22 1 -5 8 -16 4 -39 8 -50 8 -16
0 -15 -2 5 -8z"/>
<path d="M3998 8443 c6 -2 18 -2 25 0 6 3 1 5 -13 5 -14 0 -19 -2 -12 -5z"/>
<path d="M4048 8433 c6 -2 18 -2 25 0 6 3 1 5 -13 5 -14 0 -19 -2 -12 -5z"/>
<path d="M4098 8433 c7 -3 16 -2 19 1 4 3 -2 6 -13 5 -11 0 -14 -3 -6 -6z"/>
<path d="M4145 8430 c-16 -7 -17 -9 -3 -9 9 -1 20 4 23 9 7 11 7 11 -20 0z"/>
<path d="M3868 8423 c7 -3 16 -2 19 1 4 3 -2 6 -13 5 -11 0 -14 -3 -6 -6z"/>
<path d="M4318 8403 c12 -2 30 -2 40 0 9 3 -1 5 -23 4 -22 0 -30 -2 -17 -4z"/>
<path d="M4413 8393 c15 -2 37 -2 50 0 12 2 0 4 -28 4 -27 0 -38 -2 -22 -4z"/>
<path d="M4520 8386 c0 -2 11 -6 25 -8 13 -3 22 -1 19 3 -5 9 -44 13 -44 5z"/>
<path d="M4513 10803 c15 -2 39 -2 55 0 15 2 2 4 -28 4 -30 0 -43 -2 -27 -4z"/>
<path d="M4638 10793 c12 -2 30 -2 40 0 9 3 -1 5 -23 4 -22 0 -30 -2 -17 -4z"/>
<path d="M5268 10723 c7 -3 16 -2 19 1 4 3 -2 6 -13 5 -11 0 -14 -3 -6 -6z"/>
<path d="M5658 10553 c7 -3 16 -2 19 1 4 3 -2 6 -13 5 -11 0 -14 -3 -6 -6z"/>
<path d="M5729 10541 c7 -5 22 -26 32 -47 11 -23 16 -29 13 -14 -8 35 -32 70
-47 70 -8 0 -8 -3 2 -9z"/>
<path d="M5810 10525 c6 -8 9 -18 6 -23 -3 -5 4 -18 15 -28 l21 -19 -16 39
c-9 21 -16 40 -16 42 0 2 -5 4 -11 4 -8 0 -8 -4 1 -15z"/>
<path d="M5871 10534 c-1 -17 29 -87 35 -81 3 3 -3 25 -14 49 -11 23 -21 38
-21 32z"/>
<path d="M5906 10522 c6 -4 18 -20 27 -37 9 -16 16 -24 17 -17 0 18 -30 62
-44 62 -8 0 -8 -2 0 -8z"/>
<path d="M5980 10513 c0 -11 49 -90 50 -80 0 11 -39 87 -45 87 -3 0 -5 -3 -5
-7z"/>
<path d="M6040 10507 c0 -7 9 -18 50 -67 l21 -25 -18 33 c-18 33 -53 71 -53
59z"/>
<path d="M5960 10475 c0 -5 5 -17 10 -25 5 -8 10 -10 10 -5 0 6 -5 17 -10 25
-5 8 -10 11 -10 5z"/>
<path d="M2280 9720 c0 -13 11 -13 30 0 12 8 11 10 -7 10 -13 0 -23 -4 -23
-10z"/>
<path d="M2280 9673 c0 -19 18 -25 37 -13 15 9 15 11 2 7 -9 -3 -22 0 -28 6
-8 8 -11 8 -11 0z"/>
<path d="M2280 9619 c0 -5 10 -9 23 -9 l22 0 -24 -19 c-27 -20 -23 -51 6 -51
15 0 15 2 -3 15 -19 14 -19 14 4 30 12 9 20 20 17 24 -7 13 -45 21 -45 10z"/>
<path d="M2280 9510 c0 -5 5 -10 11 -10 5 0 7 -4 4 -10 -9 -15 4 -12 20 4 8 7
11 16 8 20 -10 10 -43 7 -43 -4z"/>
<path d="M2280 9460 c0 -5 11 -10 25 -10 14 0 25 5 25 10 0 6 -11 10 -25 10
-14 0 -25 -4 -25 -10z"/>
<path d="M5590 9970 c0 -5 5 -10 11 -10 5 0 7 5 4 10 -3 6 -8 10 -11 10 -2 0
-4 -4 -4 -10z"/>
<path d="M6197 9910 c-3 -11 -1 -20 4 -20 5 0 9 9 9 20 0 11 -2 20 -4 20 -2 0
-6 -9 -9 -20z"/>
<path d="M6230 9905 c0 -8 2 -15 4 -15 2 0 6 7 10 15 3 8 1 15 -4 15 -6 0 -10
-7 -10 -15z"/>
<path d="M1097 9587 c-148 -154 -216 -272 -244 -420 -21 -114 -13 -418 16
-575 34 -190 132 -355 226 -381 59 -16 70 -5 35 35 -32 37 -48 81 -34 93 5 5
35 11 67 15 l58 6 15 -35 c11 -26 12 -41 4 -55 -13 -25 2 -26 26 -2 37 36 125
183 150 248 91 242 74 634 -36 859 -70 144 -138 212 -228 229 -26 4 -38 1 -55
-17z m-107 -254 c-20 -36 -21 -36 -15 -8 7 30 24 59 32 51 3 -2 -5 -21 -17
-43z"/>
<path d="M1560 7692 c0 -5 18 -28 41 -53 43 -46 46 -45 14 7 -19 32 -55 61
-55 46z"/>
<path d="M5280 9840 c0 -5 5 -10 11 -10 5 0 7 5 4 10 -3 6 -8 10 -11 10 -2 0
-4 -4 -4 -10z"/>
<path d="M4495 9150 c3 -5 8 -10 11 -10 2 0 4 5 4 10 0 6 -5 10 -11 10 -5 0
-7 -4 -4 -10z"/>
<path d="M2391 6564 c0 -11 3 -14 6 -6 3 7 2 16 -1 19 -3 4 -6 -2 -5 -13z"/>
<path d="M4822 1353 c14 -9 31 -27 37 -40 16 -35 14 -108 -3 -122 -24 -20 -69
-9 -83 19 -14 27 -18 120 -5 136 4 5 -1 1 -10 -9 -24 -25 -23 -90 1 -144 32
-69 75 -81 122 -34 23 23 29 38 29 71 0 54 -23 101 -59 123 -37 22 -65 22 -29
0z"/>
<path d="M3755 5190 c-3 -6 1 -7 9 -4 18 7 21 14 7 14 -6 0 -13 -4 -16 -10z"/>
<path d="M2332 4316 c7 -8 15 -12 17 -11 5 6 -10 25 -20 25 -5 0 -4 -6 3 -14z"/>
<path d="M2444 4241 c21 -23 26 -26 26 -11 0 5 -10 15 -22 21 -23 12 -23 12
-4 -10z"/>
<path d="M100 4174 c-8 -3 -34 -12 -57 -20 l-43 -16 0 -144 c0 -130 6 -164 25
-135 11 19 103 42 140 35 38 -7 41 -12 9 -17 -10 -1 -24 -6 -31 -10 -7 -4 -25
-5 -40 -1 -15 4 -24 3 -20 -2 4 -4 -12 -16 -35 -25 l-43 -17 -3 -94 -3 -95 33
-14 c67 -28 165 -143 228 -269 60 -119 58 -118 147 -114 43 2 70 1 61 -2 -10
-3 -15 -11 -11 -20 4 -10 -3 -14 -26 -14 -24 0 -31 -4 -31 -20 0 -17 7 -20 43
-21 81 -3 182 3 199 12 14 8 23 1 44 -32 14 -23 32 -65 41 -93 8 -28 25 -79
39 -113 34 -87 32 -111 -9 -117 -228 -37 -282 -47 -288 -54 -4 -4 -3 -32 1
-62 5 -30 14 -113 19 -185 6 -71 17 -218 26 -325 21 -273 24 -290 43 -290 10
0 61 5 114 12 70 9 103 9 121 1 23 -11 23 -13 15 -82 -5 -39 -13 -88 -18 -109
-8 -30 -8 -27 -2 18 7 57 7 109 1 148 -3 20 -8 22 -44 18 -22 -3 -73 -8 -113
-12 -44 -4 -76 -12 -78 -19 -7 -17 57 -240 106 -374 48 -130 83 -292 45 -202
-8 18 -12 38 -9 45 3 6 -3 1 -14 -11 l-19 -21 -10 26 -11 27 -1 -26 c-1 -23
-7 -28 -38 -33 -21 -4 -57 -21 -80 -37 -33 -23 -43 -27 -43 -15 0 12 -10 16
-40 16 -27 0 -39 -4 -38 -12 2 -9 -12 -14 -39 -16 -24 -2 -43 -7 -43 -13 0 -5
-18 -9 -40 -9 -33 0 -40 3 -40 19 0 16 8 21 43 24 23 2 5 4 -40 5 -68 2 -83
-1 -83 -13 0 -11 -11 -15 -38 -15 -21 0 -41 2 -44 5 -2 3 -2 27 2 55 7 57 -4
74 -55 85 -28 7 -29 6 -10 -8 11 -8 31 -18 45 -22 24 -8 24 -8 5 -16 -29 -11
-35 -11 -33 3 2 6 -5 14 -14 16 -16 3 -17 -38 -18 -677 l0 -681 989 0 c782 0
990 3 994 13 4 9 6 9 6 0 1 -10 173 -13 826 -13 454 0 825 2 825 5 0 26 -67
131 -120 188 -73 79 -136 93 -482 103 -123 3 -228 10 -234 15 -15 12 -46 0
-38 -13 5 -7 -8 -8 -38 -4 -24 4 -123 8 -219 11 -162 3 -178 5 -230 30 -89 40
-89 40 -89 382 0 326 -16 523 -40 508 -6 -3 -10 -2 -10 4 0 5 4 13 10 16 6 3
10 11 10 16 0 6 -4 8 -9 5 -4 -3 -6 5 -4 17 7 35 -56 295 -68 282 -3 -3 -6 3
-6 13 1 53 -4 83 -12 78 -5 -4 -12 13 -16 36 -4 24 -16 63 -26 87 -10 24 -19
52 -19 63 0 10 -4 16 -10 13 -5 -3 -10 3 -10 15 0 12 -9 42 -19 68 -11 26 -39
97 -62 157 -24 61 -54 130 -67 155 -13 25 -35 74 -49 110 -23 61 -105 238
-140 305 -9 17 -38 73 -65 125 -64 123 -120 224 -134 241 -6 8 -26 42 -45 77
-18 34 -37 62 -41 62 -5 0 -8 9 -8 21 0 11 -4 18 -8 15 -5 -3 -19 14 -31 37
-39 73 -91 152 -108 165 -9 6 -14 12 -10 12 4 0 0 8 -8 18 -19 23 -66 84 -90
118 -39 54 -87 110 -205 237 -30 33 -82 80 -115 105 -33 25 -62 49 -65 53 -7
9 -145 100 -201 133 -107 62 -338 112 -409 90z m114 -533 c3 -5 -15 -11 -42
-13 -53 -5 -82 0 -82 13 0 12 117 12 124 0z m57 -132 c16 -18 27 -34 25 -37
-6 -5 -74 49 -75 61 -2 17 23 5 50 -24z m879 -895 c0 -17 -22 -14 -28 4 -2 7
3 12 12 12 9 0 16 -7 16 -16z m-422 -446 l-3 -83 -36 -3 c-34 -3 -37 -1 -43
29 -3 17 -6 49 -6 71 0 34 4 41 33 53 57 25 58 23 55 -67z m49 -520 c-3 -8 -6
-5 -6 6 -1 11 2 17 5 13 3 -3 4 -12 1 -19z m-32 -127 c-3 -6 -14 -11 -23 -11
-13 0 -13 2 4 14 21 15 30 14 19 -3z m1382 -233 c-3 -7 -5 -2 -5 12 0 14 2 19
5 13 2 -7 2 -19 0 -25z m20 -635 c-3 -10 -5 -2 -5 17 0 19 2 27 5 18 2 -10 2
-26 0 -35z m3 -71 c0 -26 -5 -53 -12 -60 -6 -6 -11 -32 -10 -57 0 -29 -4 -43
-10 -39 -7 5 -9 -2 -5 -17 3 -13 2 -33 -2 -43 -7 -19 -8 -19 -13 2 -4 12 -3
20 1 18 4 -3 7 9 7 27 0 18 6 62 12 98 7 37 13 79 14 93 4 45 18 28 18 -22z"/>
<path d="M2452 4008 c-19 -19 -14 -37 7 -31 12 3 19 13 18 24 -1 22 -8 24 -25
7z"/>
<path d="M5480 4008 c0 -11 62 -122 84 -151 8 -10 33 -24 55 -31 41 -12 141
-87 157 -118 88 -169 126 -282 122 -363 l-3 -59 -60 -13 c-32 -7 -62 -18 -66
-24 -3 -6 2 -52 12 -102 24 -123 87 -453 95 -499 3 -20 19 -51 35 -69 34 -38
35 -45 12 -57 -15 -9 -16 -17 -5 -73 16 -86 26 -95 85 -72 135 53 205 213 214
493 8 217 -30 435 -102 595 -13 28 -30 67 -39 88 -29 72 -122 202 -193 270
-79 77 -104 96 -183 136 -79 40 -220 72 -220 49z"/>
<path d="M2380 3780 c0 -5 5 -10 10 -10 6 0 10 5 10 10 0 6 -4 10 -10 10 -5 0
-10 -4 -10 -10z"/>
<path d="M1750 3591 c0 -6 4 -13 10 -16 6 -3 7 1 4 9 -7 18 -14 21 -14 7z"/>
<path d="M1785 3540 c3 -5 8 -10 11 -10 2 0 4 5 4 10 0 6 -5 10 -11 10 -5 0
-7 -4 -4 -10z"/>
<path d="M2663 3493 c15 -2 37 -2 50 0 12 2 0 4 -28 4 -27 0 -38 -2 -22 -4z"/>
<path d="M3460 3490 c0 -5 5 -10 11 -10 5 0 7 5 4 10 -3 6 -8 10 -11 10 -2 0
-4 -4 -4 -10z"/>
<path d="M1910 3355 c0 -5 5 -17 10 -25 5 -8 10 -10 10 -5 0 6 -5 17 -10 25
-5 8 -10 11 -10 5z"/>
<path d="M1940 3303 c1 -10 26 -43 33 -43 3 0 0 11 -6 25 -11 23 -27 34 -27
18z"/>
<path d="M381 3181 c-1 -20 -3 -22 -17 -11 -13 12 -14 10 -3 -14 l13 -28 8 23
c5 13 7 30 5 38 -3 9 -5 6 -6 -8z"/>
<path d="M2020 3172 c0 -12 39 -60 40 -49 0 5 -9 20 -20 34 -11 14 -20 21 -20
15z"/>
<path d="M3354 3155 c6 -16 314 -475 331 -494 11 -11 24 -10 80 9 51 17 78 21
119 16 108 -14 93 23 -80 200 -110 112 -209 190 -299 234 -70 35 -159 55 -151
35z m568 -447 c-9 -9 -12 -7 -12 12 0 19 3 21 12 12 9 -9 9 -15 0 -24z"/>
<path d="M2125 3010 c3 -5 8 -10 11 -10 2 0 4 5 4 10 0 6 -5 10 -11 10 -5 0
-7 -4 -4 -10z"/>
<path d="M140 2820 c0 -5 4 -10 8 -10 15 0 44 -74 49 -127 6 -58 17 -67 35
-28 15 32 -6 129 -33 156 -20 20 -59 26 -59 9z"/>
<path d="M0 1830 c0 -270 4 -430 10 -430 23 0 30 48 31 212 1 113 4 164 10
148 6 -18 7 -14 2 15 -3 22 -6 47 -6 55 0 8 2 97 3 198 l3 182 -27 25 -26 24
0 -429z"/>
<path d="M4043 2182 c-9 -6 10 -43 66 -127 43 -66 120 -187 171 -270 102 -165
118 -187 132 -179 5 3 2 14 -7 24 -13 14 -15 29 -10 57 5 33 1 45 -26 83 -26
37 -120 151 -139 170 -15 15 -129 168 -138 187 -7 12 -12 31 -12 42 0 21 -15
27 -37 13z"/>
<path d="M52 1680 c0 -14 2 -19 5 -12 2 6 2 18 0 25 -3 6 -5 1 -5 -13z"/>
<path d="M51 1538 c-1 -27 3 -48 7 -48 4 0 6 17 4 38 -5 58 -10 62 -11 10z"/>
<path d="M50 1470 c0 -5 7 -10 16 -10 8 0 12 5 9 10 -3 6 -10 10 -16 10 -5 0
-9 -4 -9 -10z"/>
<path d="M50 1430 c0 -5 5 -10 10 -10 6 0 10 5 10 10 0 6 -4 10 -10 10 -5 0
-10 -4 -10 -10z"/>
<path d="M40 1401 c0 -5 9 -11 21 -14 16 -4 18 -3 8 9 -13 16 -29 19 -29 5z"/>
<path d="M666 1364 c-4 -9 -4 -19 -1 -22 2 -3 7 3 11 12 4 9 4 19 1 22 -2 3
-7 -3 -11 -12z"/>
</g>
</svg>
